<?xml version="1.0" encoding="UTF-8"?>
<svg width="17px" height="19px" viewBox="0 0 17 19" version="1.1" xmlns="http://www.w3.org/2000/svg" xmlns:xlink="http://www.w3.org/1999/xlink">
    <title>C938889E-1A98-4FC6-8B5C-1496B92B28F5</title>
    <g id="Page-1" stroke="none" stroke-width="1" fill="none" fill-rule="evenodd">
        <g id="BP/-Owner/-Full-info" transform="translate(-32.000000, -486.000000)" fill="#666666" fill-rule="nonzero">
            <path d="M41.5424019,500.546883 C41.8351769,500.546883 42.0725354,500.796109 42.0725354,501.103523 L42.0794866,501.193693 C42.1206439,501.457898 42.3395848,501.660162 42.6026688,501.660162 L42.6026688,501.660162 L43.1328022,501.660162 C43.4256126,501.660162 43.6629357,501.909388 43.6629357,502.216802 L43.6629357,502.216802 L43.6629357,504.44336 C43.6629357,504.750774 43.4255773,505 43.1328022,505 L43.1328022,505 L32.5301334,505 C32.2373584,505 32,504.750774 32,504.44336 L32,504.44336 L32,502.216802 C32,501.909388 32.2373584,501.660162 32.5301334,501.660162 L32.5301334,501.660162 L33.0602669,501.660162 C33.3525825,501.660162 33.5904003,501.410454 33.5904003,501.103523 L33.5973391,501.013235 C33.6384262,500.748756 33.8570362,500.546883 34.1205338,500.546883 L34.1205338,500.546883 Z M42.6525367,493.558866 L48.3279332,497.776562 C49.0454865,498.309785 49.2150939,499.350998 48.7072967,500.104317 C48.1995702,500.857562 47.2082207,501.036169 46.4903494,500.502649 L46.4903494,500.502649 L40.8207843,496.289295 C41.5300675,495.486695 42.1758407,494.520257 42.6525367,493.558866 L42.6525367,493.558866 Z M39.2211243,486.235121 C39.3902722,485.984151 39.7211462,485.924739 39.960095,486.102344 L39.960095,486.102344 L44.2873268,489.318051 C44.526311,489.495619 44.5828232,489.843222 44.4137813,490.09397 L44.4137813,490.09397 L43.1887136,491.911398 C43.0195657,492.162331 42.6886918,492.221706 42.449743,492.044175 L42.449743,492.044175 L42.2039378,491.861523 C41.6673013,493.486911 40.4286269,495.348054 39.14839,496.410308 L39.14839,496.410308 L39.3870914,496.587728 C39.6260756,496.765333 39.6826938,497.112713 39.5135459,497.363646 L39.5135459,497.363646 L38.2884782,499.181075 C38.1186941,499.432973 37.7874668,499.490715 37.5495075,499.313852 L37.5495075,499.313852 L33.222311,496.09807 C32.9833268,495.920502 32.9268146,495.5729 33.0958212,495.322115 L33.0958212,495.322115 L34.3208889,493.504724 C34.4900368,493.253753 34.8209107,493.194378 35.0598595,493.371946 L35.0598595,493.371946 L35.2990204,493.549663 C35.8182684,491.957377 37.0648949,490.102357 38.3687051,489.01138 L38.3687051,489.01138 L38.1225111,488.828431 C37.8835623,488.650863 37.8270147,488.303297 37.9960566,488.052513 L37.9960566,488.052513 Z" id="auction"></path>
        </g>
    </g>
</svg>