<?xml version="1.0" encoding="UTF-8"?>
<svg width="13px" height="21px" viewBox="0 0 13 21" version="1.1" xmlns="http://www.w3.org/2000/svg" xmlns:xlink="http://www.w3.org/1999/xlink">
    <title>AA936CDE-F651-4D02-918F-0FD769F8955F</title>
    <g id="Page-1" stroke="none" stroke-width="1" fill="none" fill-rule="evenodd">
        <g id="BP/-Owner/-Full-info" transform="translate(-1079.000000, -414.000000)" fill="#555555" fill-rule="nonzero">
            <g id="Group-4" transform="translate(1079.000000, 414.000000)">
                <path d="M5.90909091,13.545 L5.90909091,14.9199668 C5.2227697,15.1747969 4.72727273,15.8513086 4.72727273,16.6523438 L4.72727273,19.1542969 C4.72727273,20.1720586 5.52247879,21 6.5,21 C7.47752121,21 8.27272727,20.1720586 8.27272727,19.1542969 L8.27272727,16.6523438 C8.27272727,15.8513086 7.7772303,15.1747969 7.09090909,14.9199668 L7.09090909,13.545 C10.3987788,13.232707 13,10.3325742 13,6.80859375 C13,3.07695117 10.0841,0 6.5,0 C2.9159,0 0,3.07695117 0,6.80859375 C0,10.3326152 2.60122121,13.232748 5.90909091,13.545 Z M4.3095,6.37362305 C4.54030909,6.1333125 4.91427576,6.1333125 5.14508485,6.37362305 L5.90909091,7.16908008 L7.85495455,5.14311328 C8.08576364,4.90280273 8.4597303,4.90280273 8.69053939,5.14311328 C8.92134848,5.38342383 8.92134848,5.77278516 8.69053939,6.0130957 L6.32690303,8.4740332 C6.21147879,8.59420898 6.06028485,8.65429688 5.9091303,8.65429688 C5.75797576,8.65429688 5.60674242,8.59420898 5.49135758,8.4740332 L4.30953939,7.24356445 C4.07865152,7.00325391 4.07865152,6.61393359 4.3095,6.37362305 Z" id="bid"></path>
            </g>
        </g>
    </g>
</svg>