<?xml version="1.0" encoding="UTF-8"?>
<svg width="16px" height="19px" viewBox="0 0 16 19" version="1.1" xmlns="http://www.w3.org/2000/svg" xmlns:xlink="http://www.w3.org/1999/xlink">
    <title>A32F7C96-44D0-4E46-B394-28762BB65EC7</title>
    <g id="Page-1" stroke="none" stroke-width="1" fill="none" fill-rule="evenodd">
        <g id="BP/-Owner/-Full-info" transform="translate(-32.000000, -231.000000)" fill="#7B68EE" fill-rule="nonzero">
            <path d="M48,235.872461 L48,250 L34.8924485,250 L34.8924485,248.886719 L46.9016018,248.886719 L46.9016018,235.872461 L48,235.872461 Z M41.2374188,231 L41.2374188,235.63882 L45.8030206,235.63882 L45.8030206,247.773438 L32,247.773438 L32,231 L41.2374188,231 Z M39.2319268,236.429027 L34.1792952,236.429027 L34.1792952,237.542309 L39.2319268,237.542309 L39.2319268,236.429027 Z M37.7673959,234.202465 L34.1792952,234.202465 L34.1792952,235.315746 L37.7673959,235.315746 L37.7673959,234.202465 Z M42.3358169,231 L45.8030206,234.525539 L42.3358169,234.525539 L42.3358169,231 Z" id="company"></path>
        </g>
    </g>
</svg>