<?xml version="1.0" encoding="UTF-8"?>
<svg width="16px" height="16px" viewBox="0 0 16 16" version="1.1" xmlns="http://www.w3.org/2000/svg" xmlns:xlink="http://www.w3.org/1999/xlink">
    <title>205418CC-9703-4610-90C0-85F622C73C01</title>
    <g id="Page-1" stroke="none" stroke-width="1" fill="none" fill-rule="evenodd">
        <g id="BP/-Owner/-Full-info" transform="translate(-32.000000, -482.000000)" fill="#7B68EE" fill-rule="nonzero">
            <path d="M39.53125,482 L39.53125,485.78125 L37.65625,485.78125 L37.65625,487.65625 L38.125,487.65625 L38.125,492.34375 L42.8125,492.34375 L42.8125,498 L38.125,498 L38.125,494.21875 L36.25,494.21875 L36.25,487.65625 L36.71875,487.65625 L36.71875,485.78125 L34.84375,485.78125 L34.84375,482 L39.53125,482 Z M48,492.34375 L48,498 L43.75,498 L43.75,492.34375 L48,492.34375 Z M35.3125,492.34375 L35.3125,495.15625 L37.1875,495.15625 L37.1875,498 L32,498 L32,492.34375 L35.3125,492.34375 Z M46.09375,488.59375 C46.8703613,488.59375 47.5,489.223389 47.5,490 C47.5,490.776611 46.8703613,491.40625 46.09375,491.40625 C45.3171387,491.40625 44.6875,490.776611 44.6875,490 C44.6875,489.223389 45.3171387,488.59375 46.09375,488.59375 Z M40.46875,488.59375 C41.2453613,488.59375 41.875,489.223389 41.875,490 C41.875,490.776611 41.2453613,491.40625 40.46875,491.40625 C39.6921387,491.40625 39.0625,490.776611 39.0625,490 C39.0625,489.223389 39.6921387,488.59375 40.46875,488.59375 Z M33.90625,488.59375 C34.6828613,488.59375 35.3125,489.223389 35.3125,490 C35.3125,490.776611 34.6828613,491.40625 33.90625,491.40625 C33.1296387,491.40625 32.5,490.776611 32.5,490 C32.5,489.223389 33.1296387,488.59375 33.90625,488.59375 Z" id="Manage-team"></path>
        </g>
    </g>
</svg>
