<?xml version="1.0" encoding="UTF-8"?>
<svg width="17px" height="14px" viewBox="0 0 17 14" version="1.1" xmlns="http://www.w3.org/2000/svg" xmlns:xlink="http://www.w3.org/1999/xlink">
    <title>BEF7EF65-95F3-42AC-BD89-55113F092225</title>
    <g id="Page-1" stroke="none" stroke-width="1" fill="none" fill-rule="evenodd">
        <g id="BP/-Owner/-Full-info" transform="translate(-32.000000, -294.000000)" fill="#7B68EE" fill-rule="nonzero">
            <path d="M46.5459854,301.558333 C47.8991482,301.558333 49,302.627098 49,303.940748 L49,303.940748 L49,306.570467 C49,307.358663 48.3394889,307.999936 47.5275713,307.999936 L47.5275713,307.999936 L45.3540573,307.999936 C45.4085438,307.850819 45.438493,307.690485 45.438493,307.523446 L45.438493,307.523446 L45.438493,302.699561 C45.438493,302.298919 45.36528,301.914523 45.2312719,301.558333 L45.2312719,301.558333 Z M35.7687613,301.558365 C35.6347532,301.914556 35.5615402,302.298919 35.5615402,302.699593 L35.5615402,302.699593 L35.5615402,307.523478 C35.5615402,307.690517 35.5914894,307.850819 35.6459759,308 L35.6459759,308 L33.4724287,308 C32.6605111,308 32,307.358728 32,306.570531 L32,306.570531 L32,303.940813 C32,302.62713 33.100885,301.558365 34.4540478,301.558365 L34.4540478,301.558365 Z M42.0028262,300.317146 C43.355989,300.317146 44.4568739,301.385911 44.4568739,302.699593 L44.4568739,302.699593 L44.4568739,307.523478 C44.4568739,307.78664 44.2371352,307.999968 43.9660644,307.999968 L43.9660644,307.999968 L37.0339688,307.999968 C36.762898,307.999968 36.5431593,307.786608 36.5431593,307.523478 L36.5431593,307.523478 L36.5431593,302.699593 C36.5431593,301.385911 37.6440442,300.317146 38.997207,300.317146 L38.997207,300.317146 Z M35.3175963,296.670592 C36.5346592,296.670592 37.5247784,297.631855 37.5247784,298.813376 C37.5247784,299.177013 37.4307137,299.519633 37.2653618,299.819961 C37.0297852,300.247874 36.6490774,300.589494 36.1873539,300.782482 C35.9203006,300.894078 35.6263196,300.956161 35.3175963,300.956161 C34.1005334,300.956161 33.1104143,299.99493 33.1104143,298.813376 C33.1104143,297.631823 34.1005334,296.670592 35.3175963,296.670592 Z M45.6824369,296.670592 C46.8994998,296.670592 47.8896189,297.631823 47.8896189,298.813376 C47.8896189,299.99493 46.8994998,300.956161 45.6824369,300.956161 C45.3737136,300.956161 45.0797326,300.894078 44.8126793,300.782482 C44.3509558,300.589527 43.970248,300.247906 43.7346714,299.819961 C43.5693195,299.519665 43.4752548,299.177045 43.4752548,298.813376 C43.4752548,297.631823 44.465374,296.670592 45.6824369,296.670592 Z M40.5000166,294 C42.1273713,294 43.4513153,295.285349 43.4513153,296.865223 C43.4513153,297.936825 42.8421032,298.872784 41.94233,299.364166 C41.5155694,299.597221 41.0235645,299.730414 40.5000166,299.730414 C39.9764687,299.730414 39.4844638,299.597221 39.0577032,299.364166 C38.1579632,298.872784 37.5487179,297.936857 37.5487179,296.865223 C37.5487179,295.285316 38.8726619,294 40.5000166,294 Z" id="group"></path>
        </g>
    </g>
</svg>
