<?xml version="1.0" encoding="UTF-8"?>
<svg width="22px" height="18px" viewBox="0 0 22 18" version="1.1" xmlns="http://www.w3.org/2000/svg" xmlns:xlink="http://www.w3.org/1999/xlink">
    <title>6C1EA6B0-DEB7-487C-94AC-1AAA2D6A8434</title>
    <g id="Page-1" stroke="none" stroke-width="1" fill="none" fill-rule="evenodd">
        <g id="BP/-Owner/-Full-info" transform="translate(-1329.000000, -226.000000)" fill="#FFFFFF" fill-rule="nonzero">
            <path d="M1348.35417,228.994669 L1345.17353,228.994669 L1345.17353,228.66535 C1345.17353,227.194077 1343.98873,226 1342.52888,226 L1337.47053,226 C1336.0101,226 1334.82588,227.194077 1334.82588,228.66535 L1334.82588,228.994669 L1331.64465,228.994669 C1330.18422,228.994669 1329,230.188154 1329,231.66002 L1329,241.33465 C1329,242.805923 1330.18422,244 1331.64465,244 L1348.35535,244 C1349.81578,244 1351,242.805923 1351,241.33465 L1351,231.66002 C1350.99882,230.187562 1349.81461,228.994669 1348.35417,228.994669 Z M1339.99882,241.235143 C1337.24368,241.235143 1335.00337,238.977295 1335.00337,236.200592 C1335.00337,233.424482 1337.24368,231.166041 1339.99882,231.166041 C1342.75397,231.166041 1344.99428,233.423889 1344.99428,236.200592 C1344.99428,238.977295 1342.75338,241.235143 1339.99882,241.235143 Z M1342.64348,236.200592 C1342.64348,237.668904 1341.45632,238.865943 1339.99882,238.865943 C1338.54133,238.865943 1337.35417,237.668904 1337.35417,236.200592 C1337.35417,234.731688 1338.54133,233.535242 1339.99882,233.535242 C1341.45632,233.535242 1342.64348,234.731688 1342.64348,236.200592 Z" id="upload-photo"></path>
        </g>
    </g>
</svg>