<?xml version="1.0" encoding="UTF-8"?>
<svg width="16px" height="13px" viewBox="0 0 16 13" version="1.1" xmlns="http://www.w3.org/2000/svg" xmlns:xlink="http://www.w3.org/1999/xlink">
    <title>50450457-E3B4-41A1-9A33-C04646BF506A</title>
    <g id="Page-1" stroke="none" stroke-width="1" fill="none" fill-rule="evenodd">
        <g id="BP/-Create-new-bid-(01)" transform="translate(-1120.000000, -34.000000)" fill="#FFFFFF" fill-rule="nonzero">
            <path d="M1128.00003,34 C1123.58904,34 1120,36.9157143 1120,40.5 C1120,41.969 1120.60405,43.3785714 1121.71305,44.5114286 L1120.12106,46.233 C1119.99306,46.3704286 1119.96406,46.5645 1120.04606,46.7288571 C1120.12706,46.8941429 1120.30505,47 1120.50005,47 L1128.00003,47 C1132.41101,47 1136,44.0842857 1136,40.5 C1136,36.9157143 1132.41101,34 1128.00003,34 Z M1124.00005,41.4285714 C1123.44804,41.4285714 1123.00005,41.0125714 1123.00005,40.5 C1123.00005,39.9874286 1123.44804,39.5714286 1124.00005,39.5714286 C1124.55204,39.5714286 1125.00005,39.9874286 1125.00005,40.5 C1125.00005,41.0125714 1124.55204,41.4285714 1124.00005,41.4285714 Z M1128.00003,41.4285714 C1127.44803,41.4285714 1127.00003,41.0125714 1127.00003,40.5 C1127.00003,39.9874286 1127.44803,39.5714286 1128.00003,39.5714286 C1128.55203,39.5714286 1129.00003,39.9874286 1129.00003,40.5 C1129.00003,41.0125714 1128.55203,41.4285714 1128.00003,41.4285714 Z M1132.00002,41.4285714 C1131.44802,41.4285714 1131.00002,41.0125714 1131.00002,40.5 C1131.00002,39.9874286 1131.44802,39.5714286 1132.00002,39.5714286 C1132.55201,39.5714286 1133.00002,39.9874286 1133.00002,40.5 C1133.00002,41.0125714 1132.55201,41.4285714 1132.00002,41.4285714 Z" id="chat" transform="translate(1128.000000, 40.500000) scale(-1, 1) translate(-1128.000000, -40.500000) "></path>
        </g>
    </g>
</svg>