<?xml version="1.0" encoding="UTF-8"?>
<svg width="16px" height="13px" viewBox="0 0 16 13" version="1.1" xmlns="http://www.w3.org/2000/svg" xmlns:xlink="http://www.w3.org/1999/xlink">
    <title>AFA1E8C3-8781-430B-A070-801A09BCC4DE</title>
    <g id="Page-1" stroke="none" stroke-width="1" fill="none" fill-rule="evenodd">
        <g id="BP/-Owner/-View-bid-detail-(02)" transform="translate(-1239.000000, -537.000000)" fill="#7B68EE" fill-rule="nonzero">
            <path d="M1247.00003,537 C1242.58904,537 1239,539.915714 1239,543.5 C1239,544.969 1239.60405,546.378571 1240.71305,547.511429 L1239.12106,549.233 C1238.99306,549.370429 1238.96406,549.5645 1239.04606,549.728857 C1239.12706,549.894143 1239.30505,550 1239.50005,550 L1247.00003,550 C1251.41101,550 1255,547.084286 1255,543.5 C1255,539.915714 1251.41101,537 1247.00003,537 Z M1243.00005,544.428571 C1242.44804,544.428571 1242.00005,544.012571 1242.00005,543.5 C1242.00005,542.987429 1242.44804,542.571429 1243.00005,542.571429 C1243.55204,542.571429 1244.00005,542.987429 1244.00005,543.5 C1244.00005,544.012571 1243.55204,544.428571 1243.00005,544.428571 Z M1247.00003,544.428571 C1246.44803,544.428571 1246.00003,544.012571 1246.00003,543.5 C1246.00003,542.987429 1246.44803,542.571429 1247.00003,542.571429 C1247.55203,542.571429 1248.00003,542.987429 1248.00003,543.5 C1248.00003,544.012571 1247.55203,544.428571 1247.00003,544.428571 Z M1251.00002,544.428571 C1250.44802,544.428571 1250.00002,544.012571 1250.00002,543.5 C1250.00002,542.987429 1250.44802,542.571429 1251.00002,542.571429 C1251.55201,542.571429 1252.00002,542.987429 1252.00002,543.5 C1252.00002,544.012571 1251.55201,544.428571 1251.00002,544.428571 Z" id="chat" transform="translate(1247.000000, 543.500000) scale(-1, 1) translate(-1247.000000, -543.500000) "></path>
        </g>
    </g>
</svg>