<?xml version="1.0" encoding="UTF-8"?>
<svg width="16px" height="16px" viewBox="0 0 16 16" version="1.1" xmlns="http://www.w3.org/2000/svg" xmlns:xlink="http://www.w3.org/1999/xlink">
    <title>A402AD41-94FB-4CB9-A85F-10848C750679</title>
    <g id="Page-1" stroke="none" stroke-width="1" fill="none" fill-rule="evenodd">
        <g id="BP/-Owner/-Employee-(unverify)" transform="translate(-70.000000, -140.000000)" fill="#FFFFFF" fill-rule="nonzero">
            <g id="Group" transform="translate(30.000000, 128.000000)">
                <path d="M51,16 C51.5522095,16 52,16.4477531 52,17 L52,17 L52,27 C52,27.5522469 51.5522469,28 51,28 L51,28 L41,28 C40.4477531,28 40,27.5522469 40,27 L40,27 L40,17 C40,16.4477531 40.4477531,16 41,16 L41,16 Z M46.9999533,19.000028 L44.999972,19.000028 L44.999972,21.0000093 L42.9999907,21.0000093 L42.9999907,22.9999907 L45.0000093,22.9999907 L45.0000093,24.999972 L46.9999907,24.999972 L46.9999907,22.9999907 L48.999972,22.9999907 L48.999972,21.0000093 L46.9999533,21.0000093 L46.9999533,19.000028 Z M55,12 C55.5522095,12 56,12.4477531 56,13 L56,13 L56,23 C56,23.5522469 55.5522469,24 55,24 L55,24 L53,24 L53,16 C53,15.4477438 52.5522562,15 52,15 L52,15 L44,15 L44,13 C44,12.4477531 44.4477531,12 45,12 L45,12 Z" id="create-new"></path>
            </g>
        </g>
    </g>
</svg>