<?xml version="1.0" encoding="UTF-8"?>
<svg width="12px" height="14px" viewBox="0 0 12 14" version="1.1" xmlns="http://www.w3.org/2000/svg" xmlns:xlink="http://www.w3.org/1999/xlink">
    <title>DD396E50-455C-4988-95AF-5069E5EB39BD</title>
    <g id="Page-1" stroke="none" stroke-width="1" fill="none" fill-rule="evenodd">
        <g id="BP/-Owner/-Employee-(pending)" transform="translate(-1325.000000, -242.000000)" fill="#E44D4D" fill-rule="nonzero">
            <path d="M1335.81666,245.802469 L1335.81666,254.271605 C1335.81666,255.222236 1335.05604,256 1334.12637,256 L1334.12637,256 L1327.8735,256 C1326.94382,256 1326.1832,255.222236 1326.1832,254.271605 L1326.1832,254.271605 L1326.1832,245.802469 L1335.81666,245.802469 Z M1329.05568,247.356958 L1328.21056,247.356958 L1328.21056,254.443378 L1329.05568,254.443378 L1329.05568,247.356958 Z M1331.42206,247.356958 L1330.57695,247.356958 L1330.57695,254.443378 L1331.42206,254.443378 L1331.42206,247.356958 Z M1333.78847,247.356958 L1332.94335,247.356958 L1332.94335,254.443378 L1333.78847,254.443378 L1333.78847,247.356958 Z M1332.26721,242 L1332.26721,243.209877 L1337,243.209877 L1337,244.938272 L1325,244.938272 L1325,243.209877 L1329.73177,243.209877 L1329.73177,242 L1332.26721,242 Z" id="delete"></path>
        </g>
    </g>
</svg>