<?xml version="1.0" encoding="UTF-8"?>
<svg width="16px" height="16px" viewBox="0 0 16 16" version="1.1" xmlns="http://www.w3.org/2000/svg" xmlns:xlink="http://www.w3.org/1999/xlink">
    <title>07967637-E8A8-4429-95A4-6970DCB4BCA7</title>
    <g id="Page-1" stroke="none" stroke-width="1" fill="none" fill-rule="evenodd">
        <g id="BP/-Owner/-Employee-(verify)" transform="translate(-1270.000000, -243.000000)" fill="#ffffff" fill-rule="nonzero">
            <path d="M1284.83385,251.075333 L1285.6585,251.9 C1286.11383,252.354667 1286.11383,253.094667 1285.6585,253.55 L1280.70856,258.5 C1280.63656,258.572667 1280.54322,258.621333 1280.44189,258.638667 L1278.43858,258.992 C1278.40991,258.997333 1278.38058,259 1278.35191,259 C1278.22058,259 1278.09258,258.948 1277.99858,258.853333 C1277.88325,258.738 1277.83125,258.574 1277.85992,258.412667 L1278.21325,256.409333 C1278.23058,256.308667 1278.27991,256.215333 1278.35191,256.142667 L1283.30186,251.193333 C1283.90986,250.584 1284.50718,250.748667 1284.83385,251.075333 Z M1279.4999,243 C1280.51322,243 1281.33322,243.82 1281.33322,244.833333 L1281.33322,244.833333 L1281.33322,251.28 L1277.40659,255.2 C1277.13993,255.473333 1276.96659,255.806667 1276.89993,256.18 L1276.89993,256.18 L1276.75326,257 L1271.83331,257 C1270.81999,257 1270,256.18 1270,255.166667 L1270,255.166667 L1270,244.833333 C1270,243.82 1270.81999,243 1271.83331,243 L1271.83331,243 Z M1275.99994,251 L1272.66664,251 C1272.29998,251 1271.99998,251.3 1271.99998,251.666667 C1271.99998,252.033333 1272.29998,252.333333 1272.66664,252.333333 L1272.66664,252.333333 L1275.99994,252.333333 C1276.3666,252.333333 1276.6666,252.033333 1276.6666,251.666667 C1276.6666,251.3 1276.3666,251 1275.99994,251 L1275.99994,251 Z M1278.66658,248.333333 L1272.66664,248.333333 C1272.29998,248.333333 1271.99998,248.633333 1271.99998,249 C1271.99998,249.366667 1272.29998,249.666667 1272.66664,249.666667 L1272.66664,249.666667 L1278.66658,249.666667 C1279.03324,249.666667 1279.33324,249.366667 1279.33324,249 C1279.33324,248.633333 1279.03324,248.333333 1278.66658,248.333333 L1278.66658,248.333333 Z M1275.33328,245.666667 L1272.66664,245.666667 C1272.29998,245.666667 1271.99998,245.966667 1271.99998,246.333333 C1271.99998,246.7 1272.29998,247 1272.66664,247 L1272.66664,247 L1275.33328,247 C1275.69994,247 1275.99994,246.7 1275.99994,246.333333 C1275.99994,245.966667 1275.69994,245.666667 1275.33328,245.666667 L1275.33328,245.666667 Z" id="edit-info"></path>
        </g>
    </g>
</svg>
