<svg height="512pt" viewBox="-1 0 512 512" width="512pt" xmlns="http://www.w3.org/2000/svg"><path d="m255 301h30c8.285156 0 15-6.714844 15-15s-6.714844-15-15-15h-30c-41.355469 0-75-33.644531-75-75v-30c0-41.355469 33.644531-75 75-75s75 33.644531 75 75v30.332031c0 21.476563-30 20.460938-30-.332031v-30c0-24.8125-20.1875-45-45-45s-45 20.1875-45 45v30c0 38.441406 45.382812 59.191406 74.4375 33.992188 27.496094 25.484374 75.5625 8.660156 75.5625-33.660157v-30.332031c0-57.898438-47.101562-105-105-105s-105 47.101562-105 105v30c0 57.898438 47.101562 105 105 105zm0-90c-8.269531 0-15-6.730469-15-15v-30c0-8.269531 6.730469-15 15-15s15 6.730469 15 15v30c0 8.269531-6.730469 15-15 15zm0 0"/><path d="m505.605469 230.394531-55.605469-55.609375v-119.785156c0-30.328125-24.671875-55-55-55h-280c-30.328125 0-55 24.671875-55 55v119.785156c-.433594.433594-55.628906 55.628906-55.628906 55.628906-2.78125 2.800782-4.371094 6.640626-4.371094 10.589844v215.996094c0 30.328125 24.671875 55 55 55h400c30.328125 0 55-24.671875 55-55v-215.996094c0-4.1875-1.835938-8.140625-4.394531-10.609375zm-35.195313 7.226563-20.410156 11.480468v-31.886718zm-355.410156-207.621094h280c13.785156 0 25 11.214844 25 25v210.976562l-164.75 92.671876-165.25-92.753907c0-5.835937 0-204.566406 0-210.894531 0-13.785156 11.214844-25 25-25zm-55 219.058594-20.394531-11.449219 20.394531-20.394531zm420 207.941406c0 13.785156-11.214844 25-25 25h-400c-13.785156 0-25-11.214844-25-25v-190.378906c10.898438 6.117187 208.839844 117.21875 217.917969 122.3125 4.5625 2.5625 10.132812 2.558594 14.695312-.007813l217.386719-122.277343zm0 0"/></svg>