<?xml version="1.0" encoding="UTF-8"?>
<svg width="15px" height="9px" viewBox="0 0 15 9" version="1.1" xmlns="http://www.w3.org/2000/svg" xmlns:xlink="http://www.w3.org/1999/xlink">
    <title>E3D1A4FD-F6F9-4537-AC1A-51112C70B668</title>
    <g id="Page-1" stroke="none" stroke-width="1" fill="none" fill-rule="evenodd">
        <g id="BP/-Owner/-View-bid-detail-(01)" transform="translate(-1258.000000, -379.000000)" fill="#999999" fill-rule="nonzero">
            <path d="M1265.5995,379 C1268.16515,379 1270.61446,380.402834 1272.88313,383.169028 C1273.03315,383.354251 1273.03927,383.615385 1272.89844,383.80668 C1272.88967,383.818481 1272.86745,383.848166 1272.83228,383.893242 L1272.74481,384.003177 C1272.06591,384.841534 1269.25363,388 1265.39744,388 C1262.83179,388 1260.38248,386.597166 1258.11687,383.827935 C1257.96685,383.642713 1257.96073,383.381579 1258.10156,383.190283 C1258.22709,383.020243 1261.24892,379 1265.5995,379 Z M1265.5995,380.041498 C1262.43684,380.041498 1259.97528,382.589069 1259.20069,383.496964 C1261.17851,385.79251 1263.26042,386.958502 1265.39744,386.958502 C1268.5601,386.958502 1271.02165,384.410931 1271.79625,383.503036 C1269.81843,381.20749 1267.73652,380.041498 1265.5995,380.041498 Z M1265.49847,380.855263 C1266.96805,380.855263 1268.16515,382.04251 1268.16515,383.5 C1268.16515,384.95749 1266.96805,386.144737 1265.49847,386.144737 C1264.02889,386.144737 1262.83179,384.95749 1262.83179,383.5 C1262.83179,382.04251 1264.02889,380.855263 1265.49847,380.855263 Z M1265.49847,381.896761 C1264.60753,381.896761 1263.88193,382.616397 1263.88193,383.5 C1263.88193,384.383603 1264.60753,385.103239 1265.49847,385.103239 C1266.3894,385.103239 1267.11501,384.383603 1267.11501,383.5 C1267.11501,382.616397 1266.3894,381.896761 1265.49847,381.896761 Z" id="view-copy"></path>
        </g>
    </g>
</svg>