<?xml version="1.0" encoding="UTF-8"?>
<svg width="21px" height="11px" viewBox="0 0 21 11" version="1.1" xmlns="http://www.w3.org/2000/svg" xmlns:xlink="http://www.w3.org/1999/xlink">
    <title>59281AF0-3EA6-44F2-BD01-6FCD7AC3E993</title>
    <g id="Page-1" stroke="none" stroke-width="1" fill="none" fill-rule="evenodd">
        <g id="BP/-Owner/-Employee-(verify)" transform="translate(-1220.000000, -110.000000)" fill="#FFFFFF" fill-rule="nonzero">
            <path d="M1239.47334,110 C1239.92357,110 1240.34937,110.192077 1240.63992,110.525462 C1240.93048,110.858846 1241.0535,111.297154 1240.97847,111.727846 L1240.97847,111.727846 L1239.57542,119.766308 C1239.45065,120.481308 1238.81719,121 1238.06942,121 L1238.06942,121 L1225.39666,121 C1224.94555,121 1224.52063,120.807923 1224.23007,120.474538 C1223.93952,120.141154 1223.81649,119.702846 1223.89153,119.272154 L1223.89153,119.272154 L1225.29457,111.233692 C1225.41934,110.518692 1226.05281,110 1226.80057,110 L1226.80057,110 Z M1221.74508,117.615385 C1222.22759,117.615385 1222.61762,117.994462 1222.61762,118.461538 C1222.61762,118.928615 1222.22759,119.307692 1221.74508,119.307692 L1220.87254,119.307692 C1220.39003,119.307692 1220,118.928615 1220,118.461538 C1220,117.994462 1220.39003,117.615385 1220.87254,117.615385 L1221.74508,117.615385 Z M1226.80581,112.318462 L1226.57895,113.621538 L1231.6135,116.024615 C1231.88399,116.16 1232.18065,116.219231 1232.47731,116.219231 C1232.73035,116.219231 1232.99211,116.176923 1233.2277,116.075385 L1233.2277,116.075385 L1238.76832,113.85 L1239.02136,112.377692 L1232.73035,114.907692 C1232.55584,114.975385 1232.35516,114.966923 1232.18938,114.890769 L1232.18938,114.890769 L1226.80581,112.318462 Z M1222.61762,114.230769 C1223.10013,114.230769 1223.49016,114.609846 1223.49016,115.076923 C1223.49016,115.544 1223.10013,115.923077 1222.61762,115.923077 L1220.87254,115.923077 C1220.39003,115.923077 1220,115.544 1220,115.076923 C1220,114.609846 1220.39003,114.230769 1220.87254,114.230769 L1222.61762,114.230769 Z M1223.49016,110.846154 C1223.97267,110.846154 1224.3627,111.225231 1224.3627,111.692308 C1224.3627,112.159385 1223.97267,112.538462 1223.49016,112.538462 L1220.87254,112.538462 C1220.39003,112.538462 1220,112.159385 1220,111.692308 C1220,111.225231 1220.39003,110.846154 1220.87254,110.846154 L1223.49016,110.846154 Z" id="invite"></path>
        </g>
    </g>
</svg>