<?xml version="1.0" encoding="UTF-8"?>
<svg width="122px" height="122px" viewBox="0 0 122 122" version="1.1" xmlns="http://www.w3.org/2000/svg" xmlns:xlink="http://www.w3.org/1999/xlink">
    <title>BEFA2FC1-701B-4CD8-BF48-FE34CCE86179</title>
    <g id="Page-1" stroke="none" stroke-width="1" fill="none" fill-rule="evenodd">
        <g id="BP/-Invited" transform="translate(-659.000000, -307.000000)" fill-rule="nonzero">
            <g id="invited" transform="translate(659.000000, 307.000000)">
                <path d="M122,60.9998121 C122,94.7156837 94.0496094,122.356332 60.3356719,121.996527 C49.2255703,121.878101 38.8276914,118.789258 29.8985781,113.486781 C28.7660273,112.814351 28.1648438,111.506186 28.4250469,110.214939 C29.2142344,106.298783 29.6286055,102.246807 29.6286055,98.0978506 C29.6286055,77.3540209 19.274332,59.028748 3.45221875,48.0082311 C2.35398047,47.2431093 1.87908594,45.8567879 2.23889063,44.567447 C9.41282422,18.8599765 33.0038594,2.03170981e-14 61,2.03170981e-14 C94.6893945,2.03170981e-14 122,27.310628 122,60.9998121 Z" id="Path" fill="#7B68EE"></path>
                <path d="M114.271109,48.9508725 L114.271109,53.9304781 L52.8069375,98.4102375 C51.3658125,99.0857654 49.6987969,99.0857654 48.2576719,98.4102375 L0.0061953125,60.1238895 C0.0850664063,54.5249904 0.918097656,49.1083765 2.40854688,43.9712668 L109.291508,43.9712668 C112.04175,43.9712668 114.271109,46.200628 114.271109,48.9508725 Z" id="Path" fill="#DBD6F7"></path>
                <polygon id="Path" fill="#C7BDFF" points="19.9572461 43.9712668 15.0903516 67.5527902 5.93558594 64.1043811 8.19663672 57.0164612 11.2251914 45.7133424 11.6919844 43.9712668"></polygon>
                <path d="M108.233301,23.6639688 L102.251012,45.9897489 L97.4965859,63.7338534 L53.2367969,84.4805424 C52.2479297,84.9439999 51.1041797,84.9439999 50.1153125,84.4805424 L14.4758242,67.7746302 L12.8659961,67.0199929 L18.5011094,45.9897489 L19.9312734,45.9897489 C19.2922031,45.1209748 19.0393867,43.9803215 19.3403359,42.8575393 L30.0934922,2.72641631 C30.6191406,0.764883444 32.6354766,-0.399359705 34.5970078,0.126289167 L105.633176,19.1604494 C107.594707,19.68586 108.758949,21.7021976 108.233301,23.6639688 Z" id="Path" fill="#BDE6FF"></path>
                <path d="M41.4637969,1.9662985 C39.5022656,1.44064963 37.4859297,2.60489278 36.9602812,4.56642565 L24.2022266,52.1800626 L19.4046719,70.0852454 L14.4758242,67.7748685 L12.8659961,67.0202311 L15.059375,58.834072 L18.0412266,47.7053753 L18.5008711,45.9902255 L30.0932539,2.72689288 C30.6189023,0.765360007 32.6352383,-0.398883142 34.5967695,0.12676573 L41.4637969,1.9662985 Z" id="Path" fill="#9BCEFF"></path>
                <path d="M90.3576797,18.2120893 L86.9638398,20.0683017 C86.8968828,20.1049971 86.8418398,20.1600401 86.8051445,20.2269972 L84.9489336,23.6208398 C84.797625,23.8974846 84.4001719,23.8974846 84.2488633,23.6208398 L82.3926523,20.2269972 C82.355957,20.1600401 82.3009141,20.1049971 82.233957,20.0683017 L78.8401172,18.2120893 C78.5634727,18.0607805 78.5634727,17.6633271 78.8401172,17.5120184 L82.233957,15.6558059 C82.3009141,15.6191106 82.355957,15.5640675 82.3926523,15.4971105 L84.2488633,12.1032678 C84.4001719,11.8266231 84.797625,11.8266231 84.9489336,12.1032678 L86.8051445,15.4971105 C86.8418398,15.5640675 86.8968828,15.6191106 86.9638398,15.6558059 L90.3576797,17.5120184 C90.6343242,17.6633271 90.6343242,18.0607805 90.3576797,18.2120893 Z M24.8031719,43.4175007 L21.409332,45.2734749 C21.342375,45.3101702 21.287332,45.3652133 21.2506367,45.4321703 L19.3944258,48.826013 C19.2431172,49.1026577 18.8456641,49.1026577 18.6943555,48.826013 L16.8381445,45.4321703 C16.8014492,45.3652133 16.7464062,45.3101702 16.6794492,45.2734749 L13.2856094,43.4172624 C13.0089648,43.2659537 13.0089648,42.8685003 13.2856094,42.7171915 L16.6796875,40.8609791 C16.7466445,40.8242837 16.8016875,40.7692407 16.8383828,40.7022836 L18.6945937,37.308441 C18.8459023,37.0317962 19.2433555,37.0317962 19.3946641,37.308441 L21.250875,40.7022836 C21.2875703,40.7692407 21.3426133,40.8242837 21.4095703,40.8609791 L24.8034102,42.7171915 C25.0798164,42.8685003 25.0798164,43.2659537 24.8031719,43.4175007 L24.8031719,43.4175007 Z" id="Shape" fill="#FFF5F5"></path>
                <path d="M54.5266133,81.9356966 L54.5266133,113.685508 L30.2357461,113.685508 C12.1485313,103.101284 0,83.4695143 0,61.0000504 C0,60.7074408 0.00214453125,60.4153077 0.0061953125,60.1238895 L12.7492383,66.0973671 L48.2574336,82.7418027 C49.6985586,83.4173306 51.3655742,83.4173306 52.8066992,82.7418027 L54.5266133,81.9356966 Z" id="Path" fill="#EDE8FF"></path>
                <path d="M114.271109,54.5266583 L114.271109,108.705902 C114.271109,111.456147 112.04175,113.685508 109.291508,113.685508 L38.2884609,113.685508 C31.1624219,113.685508 25.385293,107.908613 25.385293,100.782329 L25.385293,72.020329 L48.2576719,82.7418027 C49.6987969,83.4173306 51.3658125,83.4173306 52.8069375,82.7418027 L114.237512,53.9462047 C114.259672,54.1365916 114.271109,54.3303144 114.271109,54.5266583 Z" id="Path" fill="#EDE8FF"></path>
                <path d="M93.0881445,113.685508 L86.9026016,113.685508 L61.2023008,78.8063463 L65.7999375,76.6513289 L93.0881445,113.685508 Z M16.2510195,102.45578 C17.3921484,103.68698 18.5835547,104.871001 19.8216641,106.004506 L39.8623086,78.8063463 L35.2646719,76.6513289 L16.2510195,102.45578 Z" id="Shape" fill="#D6D0FF"></path>
            </g>
        </g>
    </g>
</svg>