<?xml version="1.0" encoding="UTF-8"?>
<svg width="20px" height="17px" viewBox="0 0 20 17" version="1.1" xmlns="http://www.w3.org/2000/svg" xmlns:xlink="http://www.w3.org/1999/xlink">
    <title>80D7C324-A51B-4975-BD94-4D7C2D588D84</title>
    <g id="Page-1" stroke="none" stroke-width="1" fill="none" fill-rule="evenodd">
        <g id="BP/-Owner/-Full-info" transform="translate(-334.000000, -30.000000)" fill="#555555" fill-rule="nonzero">
            <path d="M348.6875,39.0002857 C349.37125,39.4617143 350.18,39.7142857 351.03125,39.7142857 C351.645,39.7142857 352.22375,39.5746429 352.75,39.3366429 L352.75,39.3366429 L352.75,45.7857143 C352.75,46.456 352.19,47 351.5,47 L351.5,47 L346.5,47 L346.5,42.1428571 L341.5,42.1428571 L341.5,47 L336.5,47 C335.81,47 335.25,46.456 335.25,45.7857143 L335.25,45.7857143 L335.25,39.3366429 C335.77625,39.5746429 336.355,39.7142857 336.96875,39.7142857 C337.82,39.7142857 338.62875,39.4617143 339.3125,39.0002857 C340.68,39.9243571 342.6325,39.9243571 344,39.0002857 C345.3675,39.9243571 347.32,39.9243571 348.6875,39.0002857 Z M351.6375,30 C352.21125,30 352.71125,30.3788571 352.85,30.9192143 L352.85,30.9192143 L353.98125,35.3173571 C353.99375,35.3647143 354,35.4145 354,35.4642857 C354,37.1375714 352.66875,38.5 351.03125,38.5 C350.07875,38.5 349.23125,38.0397857 348.6875,37.3257857 C348.14375,38.0397857 347.29625,38.5 346.34375,38.5 C345.39125,38.5 344.54375,38.0397857 344,37.3257857 C343.45625,38.0397857 342.6075,38.5 341.65625,38.5 C340.705,38.5 339.85625,38.0397857 339.3125,37.3257857 C338.76875,38.0397857 337.92,38.5 336.96875,38.5 C335.33125,38.5 334,37.1375714 334,35.4642857 C334,35.4145 334.00625,35.3647143 334.01875,35.3173571 L334.01875,35.3173571 L335.15,30.9192143 C335.29,30.3788571 335.79,30 336.36375,30 L336.36375,30 Z" id="marketplace"></path>
        </g>
    </g>
</svg>