<?xml version="1.0" encoding="UTF-8"?>
<svg width="17px" height="9px" viewBox="0 0 17 9" version="1.1" xmlns="http://www.w3.org/2000/svg" xmlns:xlink="http://www.w3.org/1999/xlink">
    <title>1DB6BBAA-BC1D-49E5-B638-5D8BACB832BE</title>
    <g id="Page-1" stroke="none" stroke-width="1" fill="none" fill-rule="evenodd">
        <g id="BP/-Owner/-Full-info" transform="translate(-1299.000000, -419.000000)" fill="#7B68EE" fill-rule="nonzero">
            <path d="M1315.22727,422.749993 L1301.63827,422.749993 L1304.18275,420.280289 C1304.48453,419.987439 1304.48453,419.512538 1304.18275,419.219638 C1303.88103,418.926787 1303.39174,418.926787 1303.08996,419.219638 L1299.22633,422.969643 C1298.92456,423.262493 1298.92456,423.737394 1299.22633,424.030294 L1303.08996,427.7803 C1303.2409,427.92675 1303.43862,428 1303.63638,428 C1303.83415,428 1304.03192,427.92675 1304.18275,427.7803 C1304.48453,427.487449 1304.48453,427.012549 1304.18275,426.719648 L1301.63827,424.249995 L1315.22727,424.249995 C1315.65402,424.249995 1316,423.914194 1316,423.5 C1316,423.085793 1315.65402,422.749993 1315.22727,422.749993 Z" id="next" transform="translate(1307.500000, 423.500000) scale(-1, 1) translate(-1307.500000, -423.500000) "></path>
        </g>
    </g>
</svg>