<?xml version="1.0" encoding="UTF-8"?>
<svg width="16px" height="16px" viewBox="0 0 16 16" version="1.1" xmlns="http://www.w3.org/2000/svg" xmlns:xlink="http://www.w3.org/1999/xlink">
    <title>F7EC1B8C-72B4-4A5C-B830-C42EC897CA78</title>
    <g id="Page-1" stroke="none" stroke-width="1" fill="none" fill-rule="evenodd">
        <g id="BP/-Owner/-Full-info-(edit-mode)" transform="translate(-855.000000, -169.000000)" fill="#FFFFFF" fill-rule="nonzero">
            <path d="M857.285724,169.00038 C857.673962,169.00038 857.989013,169.308655 857.989013,169.688542 L857.989013,169.688542 L857.989013,173.989589 C857.989013,174.369477 858.303741,174.677752 858.692303,174.677752 L858.692303,174.677752 L866.956052,174.677752 C867.344291,174.677752 867.659342,174.369477 867.659342,173.989589 L867.659342,173.989589 L867.659342,169.688542 C867.659342,169.308275 867.97407,169.000316 868.362632,169 L868.362632,169 L870.29671,169 C870.684949,169 871,169.308275 871,169.688163 L871,169.688163 L871,184.311837 C871,184.691725 870.684949,185 870.29671,185 L870.29671,185 L858.164803,185 C857.776242,185 857.254044,184.768398 856.998408,184.482138 L856.998408,184.482138 L855.463106,182.765528 C855.20747,182.479584 855,181.939391 855,181.559504 L855,181.559504 L855,169.688542 C855,169.308655 855.314728,169.00038 855.70329,169.00038 L855.70329,169.00038 Z M865.461546,169.171693 C865.849784,169.171693 866.164836,169.479968 866.164836,169.859855 L866.164836,169.859855 L866.164836,172.533048 C866.164836,172.912936 865.849784,173.221211 865.461546,173.221211 L865.461546,173.221211 L864.172052,173.221211 C863.783814,173.221211 863.468763,172.913252 863.468763,172.533048 L863.468763,172.533048 L863.468763,169.859855 C863.468763,169.479968 863.783814,169.171693 864.172052,169.171693 L864.172052,169.171693 Z" id="save"></path>
        </g>
    </g>
</svg>