<?xml version="1.0" encoding="UTF-8"?>
<svg width="16px" height="16px" viewBox="0 0 16 16" version="1.1" xmlns="http://www.w3.org/2000/svg" xmlns:xlink="http://www.w3.org/1999/xlink">
    <title>10200C7C-8A1C-4B78-BF15-3878B089EA24</title>
    <g id="Page-1" stroke="none" stroke-width="1" fill="none" fill-rule="evenodd">
        <g id="BP/-Owner/-View-bid-detail-(01)" transform="translate(-1248.000000, -299.000000)" fill="#7B68EE" fill-rule="nonzero">
            <path d="M1252,301.666846 C1252.36865,301.666846 1252.66663,301.964817 1252.66663,302.333467 C1252.66663,302.702117 1252.36865,303.000088 1252,303.000088 L1250,303.000088 C1249.63196,303.000088 1249.33325,303.298792 1249.33325,303.666831 L1249.33325,313.000015 C1249.33325,313.368054 1249.63196,313.666758 1250,313.666758 L1262,313.666758 C1262.36792,313.666758 1262.66663,313.368054 1262.66663,313.000015 L1262.66663,307.666802 C1262.66663,307.298152 1262.9646,307.000059 1263.33325,307.000059 C1263.70203,307.000059 1264,307.298152 1264,307.666802 L1264,313.000015 C1264,314.10279 1263.10266,315 1262,315 L1250,315 C1248.89734,315 1248,314.10279 1248,313.000015 L1248,303.666831 C1248,302.564178 1248.89734,301.666846 1250,301.666846 L1252,301.666846 Z M1258.97998,299.036128 C1259.16858,298.960201 1259.38525,299.006221 1259.52661,299.152826 L1259.52661,299.152826 L1263.85999,303.652793 C1264.04663,303.847494 1264.04663,304.15279 1263.85999,304.346758 L1263.85999,304.346758 L1259.52661,308.846725 C1259.38525,308.993452 1259.16736,309.040083 1258.97998,308.963423 C1258.79065,308.887496 1258.66663,308.704148 1258.66663,308.500048 L1258.66663,308.500048 L1258.66663,306.333438 L1257.87463,306.333438 C1255.77795,306.333438 1253.89331,307.498102 1252.95593,309.373454 C1252.86865,309.547403 1252.68799,309.65812 1252.49927,309.65812 C1252.46265,309.65812 1252.42603,309.654092 1252.38928,309.644815 C1252.16333,309.592081 1252,309.398723 1252,309.166791 L1252,309.166791 L1252,308.166798 C1252,304.58284 1254.91602,301.666846 1258.5,301.666846 L1258.5,301.666846 L1258.66663,301.666846 L1258.66663,299.500114 C1258.66663,299.296136 1258.79065,299.112787 1258.97998,299.036128 Z" id="share"></path>
        </g>
    </g>
</svg>