<?xml version="1.0" encoding="UTF-8"?>
<svg width="12px" height="12px" viewBox="0 0 12 12" version="1.1" xmlns="http://www.w3.org/2000/svg" xmlns:xlink="http://www.w3.org/1999/xlink">
    <title>unverify</title>
    <g id="Page-1" stroke="none" stroke-width="1" fill="none" fill-rule="evenodd">
        <g id="BP/-Owner/-Employee-(unverify)" transform="translate(-1042.000000, -389.000000)" fill="#EAA618" fill-rule="nonzero">
            <path d="M1048,389 C1044.69158,389 1042,391.69158 1042,395 C1042,398.30842 1044.69158,401 1048,401 C1051.30842,401 1054,398.30842 1054,395 C1054,391.69158 1051.30842,389 1048,389 Z M1048,398.451237 C1047.66351,398.451237 1047.39071,398.178439 1047.39071,397.841951 C1047.39071,397.505463 1047.66351,397.232666 1048,397.232666 C1048.33649,397.232666 1048.60929,397.505463 1048.60929,397.841951 C1048.60929,398.178439 1048.33649,398.451237 1048,398.451237 Z M1048.60929,395.323571 C1048.60929,395.660059 1048.33649,395.932857 1048,395.932857 C1047.66351,395.932857 1047.39071,395.660059 1047.39071,395.323571 L1047.39071,392.114668 C1047.39071,391.778179 1047.66351,391.505382 1048,391.505382 C1048.33649,391.505382 1048.60929,391.778179 1048.60929,392.114668 L1048.60929,395.323571 Z" id="unverify"></path>
        </g>
    </g>
</svg>