<?xml version="1.0" encoding="UTF-8"?>
<svg width="13px" height="11px" viewBox="0 0 13 11" version="1.1" xmlns="http://www.w3.org/2000/svg" xmlns:xlink="http://www.w3.org/1999/xlink">
    <title>C090087C-D32B-4D87-994B-3400C21E2058</title>
    <g id="Page-1" stroke="none" stroke-width="1" fill="none" fill-rule="evenodd">
        <g id="BP/-Owner/-Full-info" transform="translate(-1172.000000, -360.000000)" fill="#26AF39" fill-rule="nonzero">
            <g id="Group-2" transform="translate(1164.000000, 353.000000)">
                <path d="M21,12.5 L19.5283403,11.0467564 L19.7587622,9.10123741 L17.6068189,8.69603494 L16.5091117,7 L14.5000127,7.79860226 L12.4909137,7 L11.3932066,8.69603494 L9.24126326,9.10123741 L9.47165974,11.0467564 L8,12.5 L9.47163432,13.9532436 L9.24123784,15.8987626 L11.3931811,16.3039651 L12.4908883,18 L14.4999873,17.2013751 L16.5090863,18 L17.6067934,16.3039651 L19.7587367,15.8987626 L19.5283148,13.9532436 L21,12.5 Z M17.2249602,11.2341521 L13.9622176,14.4853587 L11.6949616,12.4688201 L12.2342312,11.989184 L13.9307201,13.4980719 L16.655998,10.7824625 L17.2249602,11.2341521 Z" id="verify"></path>
            </g>
        </g>
    </g>
</svg>